<svg xmlns="http://www.w3.org/2000/svg" viewBox="0 0 248.05 144.62"><defs><style>.cls-1{fill:#f39c12;}.cls-2{fill:#e67e22;}.cls-3{fill:#f1c40f;}.cls-4{fill:#fff;}.cls-5{fill:#34495e;}</style></defs><g id="Calque_2" data-name="Calque 2"><g id="Objects"><path class="cls-1" d="M242.25,115.81a839.14,839.14,0,0,0-236.45,0q5.12-11.13,10.54-22.19Q8.33,84.25,0,75a879.38,879.38,0,0,1,248.05,0q-8.33,9.21-16.34,18.59Q237.14,104.69,242.25,115.81Z"/><path class="cls-2" d="M221,98.44a854,854,0,0,0-194,0q10.83,6.07,21.34,12.42a838.73,838.73,0,0,1,151.33,0Q210.19,104.51,221,98.44Z"/><path class="cls-3" d="M221,98.44a854,854,0,0,0-194,0L22.34,57.51a894.65,894.65,0,0,1,203.37,0Z"/><path class="cls-4" d="M51.71,72.31A72.32,72.32,0,1,1,124,144.62,72.32,72.32,0,0,1,51.71,72.31Z"/><path class="cls-5" d="M55.12,72.31A68.91,68.91,0,1,1,124,141.22,68.9,68.9,0,0,1,55.12,72.31Z"/></g></g></svg>