<svg id="Illustration" xmlns="http://www.w3.org/2000/svg" xmlns:xlink="http://www.w3.org/1999/xlink" viewBox="0 0 2782.37 2800"><defs><style>.cls-1{fill:url(#linear-gradient);}.cls-2{fill:url(#linear-gradient-2);}.cls-3,.cls-8{fill:#91b3fa;}.cls-3{opacity:0.21;}.cls-4{fill:url(#linear-gradient-3);}.cls-5{fill:#7d97f4;}.cls-11,.cls-13,.cls-6,.cls-9{fill:#fff;}.cls-7{fill:url(#linear-gradient-4);}.cls-10,.cls-9{opacity:0.51;}.cls-11{opacity:0.7;}.cls-12{fill:url(#linear-gradient-5);}.cls-13{opacity:0.61;}.cls-14{fill:url(#linear-gradient-6);}.cls-15{fill:url(#linear-gradient-7);}.cls-16{fill:url(#linear-gradient-8);}.cls-17{fill:url(#linear-gradient-9);}.cls-18{fill:url(#linear-gradient-10);}.cls-19{fill:url(#linear-gradient-11);}.cls-20{fill:url(#linear-gradient-12);}.cls-21{fill:url(#linear-gradient-13);}.cls-22{fill:url(#linear-gradient-14);}.cls-23{fill:url(#linear-gradient-15);}.cls-24{fill:url(#linear-gradient-16);}.cls-25{fill:url(#linear-gradient-17);}.cls-26{fill:url(#linear-gradient-18);}.cls-27{fill:url(#linear-gradient-19);}</style><linearGradient id="linear-gradient" x1="3445.85" y1="3280.42" x2="1434.67" y2="1520.63" gradientUnits="userSpaceOnUse"><stop offset="0" stop-color="#dae3fe"/><stop offset="1" stop-color="#e9effd"/></linearGradient><linearGradient id="linear-gradient-2" x1="1569.64" y1="654.73" x2="-583.62" y2="3996" gradientTransform="matrix(-1, 0, 0, 1, 2257.33, 0)" gradientUnits="userSpaceOnUse"><stop offset="0" stop-color="#4f52ff"/><stop offset="1" stop-color="#4042e2"/></linearGradient><linearGradient id="linear-gradient-3" x1="-617.45" y1="3100.2" x2="-258.94" y2="2024.65" gradientTransform="matrix(-1, 0, 0, 1, 1155.78, 0)" gradientUnits="userSpaceOnUse"><stop offset="0" stop-color="#09005d"/><stop offset="1" stop-color="#1a0f91"/></linearGradient><linearGradient id="linear-gradient-4" x1="216.71" y1="3035.92" x2="-1379.63" y2="3424.22" gradientTransform="matrix(1, 0, 0, -1, 2082.6, 6402.71)" xlink:href="#linear-gradient-3"/><linearGradient id="linear-gradient-5" x1="3668.75" y1="742.13" x2="3204.18" y2="1196.6" gradientUnits="userSpaceOnUse"><stop offset="0" stop-color="#ff928e"/><stop offset="1" stop-color="#fe7062"/></linearGradient><linearGradient id="linear-gradient-6" x1="1693.73" y1="1879.65" x2="1819.19" y2="2010.68" gradientTransform="matrix(-1, 0, 0, 1, 2478.46, 0)" xlink:href="#linear-gradient-3"/><linearGradient id="linear-gradient-7" x1="1860.16" y1="2208.54" x2="2097.47" y2="2382.71" gradientTransform="matrix(-1, 0, 0, 1, 2478.46, 0)" xlink:href="#linear-gradient-3"/><linearGradient id="linear-gradient-8" x1="1476.76" y1="1564.84" x2="1315.65" y2="1756.43" gradientTransform="matrix(-1, 0, 0, 1, 2478.46, 0)" gradientUnits="userSpaceOnUse"><stop offset="0" stop-color="#febbba"/><stop offset="1" stop-color="#ff928e"/></linearGradient><linearGradient id="linear-gradient-9" x1="1800.54" y1="1093.28" x2="1315.74" y2="1598.27" xlink:href="#linear-gradient-5"/><linearGradient id="linear-gradient-10" x1="1288.9" y1="1739.16" x2="1610.93" y2="1298.61" xlink:href="#linear-gradient-8"/><linearGradient id="linear-gradient-11" x1="1091.9" y1="1374.08" x2="1103.77" y2="1267.32" xlink:href="#linear-gradient-8"/><linearGradient id="linear-gradient-12" x1="1155.17" y1="1280.95" x2="1102.89" y2="1108.51" xlink:href="#linear-gradient-8"/><linearGradient id="linear-gradient-13" x1="1107.99" y1="964.32" x2="1156.6" y2="1241.57" gradientTransform="matrix(-1, 0, 0, 1, 2478.46, 0)" xlink:href="#linear-gradient-3"/><linearGradient id="linear-gradient-14" x1="1101.02" y1="1297.37" x2="1048.73" y2="1124.93" xlink:href="#linear-gradient-8"/><linearGradient id="linear-gradient-15" x1="1528.36" y1="1639.49" x2="1773.41" y2="1639.49" gradientTransform="matrix(-1, 0, 0, 1, 2478.46, 0)" xlink:href="#linear-gradient-3"/><linearGradient id="linear-gradient-16" x1="1558.11" y1="1746.61" x2="1362.16" y2="1800.31" gradientTransform="matrix(-1, 0, 0, 1, 2478.46, 0)" xlink:href="#linear-gradient-3"/><linearGradient id="linear-gradient-17" x1="1283.07" y1="821.83" x2="1207.32" y2="1988.3" gradientUnits="userSpaceOnUse"><stop offset="0" stop-color="#e1473d"/><stop offset="1" stop-color="#e9605a"/></linearGradient><linearGradient id="linear-gradient-18" x1="1420.97" y1="830.79" x2="1345.22" y2="1997.25" xlink:href="#linear-gradient-17"/><linearGradient id="linear-gradient-19" x1="1523.57" y1="837.45" x2="1447.82" y2="2003.92" xlink:href="#linear-gradient-17"/></defs><path class="cls-1" d="M3096.52,2370.39c-258.3,617.1-946.35,962.8-1543,869.55-97.09-15.18-363.27-60.38-598.94-273.62C500.86,2555.82,403.84,1743,769.81,1170.13c266.36-416.92,743.83-653.26,1197.53-641.44,97.73,2.55,472.25,18.24,801.4,293.62,48.34,40.44,155,136.56,251.07,289C3245.47,1469.39,3264.86,1968.23,3096.52,2370.39Z" transform="translate(-463.81 -455)"/><path class="cls-2" d="M479.14,2255.25c44.11-188.24,188.32-336,371.91-381.2,126.22-31.07,247.32-14.39,349.68,36,34,16.7,74.29-2.2,83.7-39.59,90.48-359.6,408.92-625.26,787.91-625.26,449.38,0,813.68,373.53,813.68,834.29,0,12.23-.24,28.94-.45,45,1.59,34.46,16.26,49.09,38.17,52.76,176.06,18.79,314.43,167.62,322.11,351.18,8.82,210.76-158.49,385.38-364.24,385.38H978.47C652.67,2913.73,397.59,2603.35,479.14,2255.25Z" transform="translate(-463.81 -455)"/><path class="cls-3" d="M626.54,2325.79c39.38-168.07,168.14-300,332.07-340.35,112.7-27.75,220.82-12.86,312.21,32.09,30.31,14.91,66.33-2,74.73-35.35,80.79-321.07,365.12-558.27,703.5-558.27,401.24,0,726.52,333.51,726.52,744.91,0,10.92-.22,25.84-.41,40.15,1.42,30.77,14.53,43.83,34.08,47.11,157.21,16.78,280.75,149.66,287.61,313.55,7.87,188.19-141.51,344.1-325.22,344.1H1072.37C781.48,2913.73,553.72,2636.6,626.54,2325.79Z" transform="translate(-463.81 -455)"/><path class="cls-4" d="M847.51,3139.22a28.14,28.14,0,0,0,28.07,28h1518a28.14,28.14,0,0,0,28.07-28l12.63-872.35c0-15.42-18.17-45.54-51.47-43.27L899.25,2185.21a70.75,70.75,0,0,0-72.59,72.35Z" transform="translate(-463.81 -455)"/><path class="cls-5" d="M875.22,3112.31a26.64,26.64,0,0,0,26.56,26.56H2357a26.64,26.64,0,0,0,26.56-26.56l11.92-791.92c-1.4-47.66-43.18-64.79-68.51-63.78L905.08,2218.47a49.71,49.71,0,0,0-51,50.87Z" transform="translate(-463.81 -455)"/><path class="cls-6" d="M2367.8,2736.09h0a3.89,3.89,0,0,1-3.85-4l.94-64.22a3.89,3.89,0,0,1,3.89-3.84h0a3.9,3.9,0,0,1,3.86,4l-.94,64.23A3.89,3.89,0,0,1,2367.8,2736.09Z" transform="translate(-463.81 -455)"/><path class="cls-6" d="M2370.11,2578.71h-.06a3.88,3.88,0,0,1-3.83-3.95l3.61-246c-.07-14.61-4.5-26.28-13.19-34.59-16.2-15.53-41.92-14.73-43-14.68l-454.45-12.19a3.9,3.9,0,0,1-3.79-4,3.74,3.74,0,0,1,4-3.79l454.18,12.19c2.83-.17,30.22-.64,48.46,16.84,10.26,9.83,15.5,23.37,15.58,40.25L2374,2574.88A3.89,3.89,0,0,1,2370.11,2578.71Z" transform="translate(-463.81 -455)"/><rect class="cls-7" x="724.36" y="3163.03" width="1789.65" height="76.65" rx="5.65" transform="translate(2774.56 5947.71) rotate(180)"/><path class="cls-8" d="M1506.55,3100.24H946.27a37.41,37.41,0,0,1-37.41-37.41V2331.49a37.41,37.41,0,0,1,38.84-37.38L1508,2315.56a37.39,37.39,0,0,1,36,37.37v709.9A37.4,37.4,0,0,1,1506.55,3100.24Z" transform="translate(-463.81 -455)"/><rect class="cls-9" x="554.84" y="2126.01" width="381.79" height="49.32" rx="5.33"/><rect class="cls-9" x="555.59" y="2204.77" width="381.79" height="49.32" rx="5.33"/><rect class="cls-9" x="557.82" y="2285.19" width="381.79" height="49.32" rx="5.33"/><rect class="cls-9" x="558.58" y="2363.95" width="381.79" height="49.32" rx="5.33"/><rect class="cls-9" x="1201.63" y="2125.95" width="548.9" height="49.32" rx="5.33"/><rect class="cls-9" x="1203.33" y="2204.77" width="548.9" height="49.32" rx="5.33"/><rect class="cls-9" x="1203.33" y="2285.19" width="325.25" height="49.32" rx="5.33"/><g class="cls-10"><path class="cls-6" d="M1956.83,2397.13h-8.36a7.52,7.52,0,0,1-7.51-7.52V2361a18.53,18.53,0,0,0-18.53-18.52h-51.8A18.53,18.53,0,0,0,1852.1,2361v28.58a7.52,7.52,0,0,1-7.51,7.52h-8.36a7.52,7.52,0,0,1-7.52-7.52V2361a41.91,41.91,0,0,1,41.92-41.91h51.8a41.91,41.91,0,0,1,41.92,41.91v28.58A7.52,7.52,0,0,1,1956.83,2397.13Z" transform="translate(-463.81 -455)"/><path class="cls-6" d="M1967.2,2403.87H1825.86a15.69,15.69,0,0,0-15.68,15.69V2528a15.68,15.68,0,0,0,15.68,15.68H1967.2a15.68,15.68,0,0,0,15.68-15.68V2419.56A15.69,15.69,0,0,0,1967.2,2403.87Zm-50.45,104.84a5.81,5.81,0,0,1-5.65,7.17H1882a5.81,5.81,0,0,1-5.65-7.17l6.8-28.31a26.2,26.2,0,1,1,26.84,0Z" transform="translate(-463.81 -455)"/></g><path class="cls-8" d="M2368.25,1130.81a3.3,3.3,0,0,1-1.63-.42,3.37,3.37,0,0,1-1.31-4.58q3.26-5.85,6.31-11.78a3.37,3.37,0,0,1,6,3.1q-3.1,6-6.41,11.95A3.35,3.35,0,0,1,2368.25,1130.81Z" transform="translate(-463.81 -455)"/><path class="cls-8" d="M1974.42,1362.61q-3,0-6,0a3.37,3.37,0,0,1,0-6.73h0c8.71.12,17.5,0,26.19-.42a3.41,3.41,0,0,1,3.52,3.21,3.38,3.38,0,0,1-3.21,3.52C1988.21,1362.46,1981.27,1362.61,1974.42,1362.61ZM1925.7,1360l-.37,0c-8.79-1-17.66-2.18-26.34-3.63a3.37,3.37,0,1,1,1.11-6.64c8.56,1.43,17.29,2.64,26,3.57a3.37,3.37,0,0,1-.35,6.72Zm111.9-1.81a3.37,3.37,0,0,1-.47-6.7c8.62-1.21,17.31-2.7,25.83-4.41a3.37,3.37,0,1,1,1.33,6.6c-8.65,1.74-17.47,3.25-26.22,4.48Zm-180-10.88a3.26,3.26,0,0,1-.87-.12c-8.54-2.27-17.11-4.83-25.48-7.61a3.36,3.36,0,1,1,2.11-6.39c8.26,2.73,16.7,5.26,25.1,7.5a3.37,3.37,0,0,1-.86,6.62Zm247.58-4a3.37,3.37,0,0,1-1-6.59c8.35-2.52,16.7-5.33,24.85-8.33a3.37,3.37,0,0,1,2.33,6.32c-8.27,3-16.76,5.89-25.22,8.46A3.36,3.36,0,0,1,2105.22,1343.27Zm-312.9-18.93a3.42,3.42,0,0,1-1.36-.28c-8.09-3.57-16.17-7.42-24-11.44a3.37,3.37,0,1,1,3.08-6c7.71,4,15.67,7.75,23.64,11.26a3.37,3.37,0,0,1-1.36,6.45Zm377.42-6.21a3.37,3.37,0,0,1-1.46-6.4c7.83-3.77,15.65-7.83,23.26-12.07a3.37,3.37,0,0,1,3.28,5.89c-7.73,4.3-15.67,8.42-23.63,12.25A3.27,3.27,0,0,1,2169.74,1318.13Zm-438.4-26.52a3.3,3.3,0,0,1-1.82-.54c-7.43-4.76-14.82-9.81-22-15a3.37,3.37,0,1,1,4-5.45c7,5.12,14.29,10.09,21.62,14.79a3.37,3.37,0,0,1-1.82,6.2Zm498.27-8.28a3.37,3.37,0,0,1-1.92-6.14c7.16-4.94,14.28-10.16,21.14-15.51A3.37,3.37,0,0,1,2253,1267c-7,5.43-14.18,10.73-21.45,15.75A3.4,3.4,0,0,1,2229.61,1283.33Zm-553.47-33.47a3.39,3.39,0,0,1-2.23-.84c-6.59-5.84-13.11-12-19.39-18.2a3.37,3.37,0,1,1,4.75-4.77c6.18,6.14,12.61,12.18,19.11,17.92a3.37,3.37,0,0,1-2.24,5.89Zm607.33-10.1a3.37,3.37,0,0,1-2.32-5.82c6.34-6,12.58-12.21,18.54-18.52a3.37,3.37,0,0,1,4.9,4.62c-6.06,6.41-12.39,12.73-18.81,18.8A3.39,3.39,0,0,1,2283.47,1239.76Zm-655.54-39.6a3.38,3.38,0,0,1-2.59-1.22c-5.64-6.77-11.16-13.81-16.42-20.92a3.37,3.37,0,0,1,5.42-4c5.18,7,10.62,13.94,16.18,20.62a3.37,3.37,0,0,1-2.59,5.52Zm702.13-11.6a3.32,3.32,0,0,1-2.06-.71,3.37,3.37,0,0,1-.59-4.73c5.36-6.89,10.57-14,15.48-21.13a3.37,3.37,0,0,1,5.55,3.81c-5,7.25-10.27,14.47-15.72,21.46A3.36,3.36,0,0,1,2330.06,1188.56Zm-742.24-44.84a3.38,3.38,0,0,1-2.89-1.64c-4.56-7.6-8.94-15.4-13-23.2a3.37,3.37,0,0,1,6-3.11c4,7.67,8.33,15.36,12.82,22.85a3.36,3.36,0,0,1-2.88,5.1Zm-31-61.94a3.37,3.37,0,0,1-3.12-2.11c-3.33-8.2-6.45-16.58-9.28-24.92a3.37,3.37,0,0,1,6.38-2.16c2.78,8.21,5.86,16.47,9.14,24.55a3.37,3.37,0,0,1-3.12,4.64Z" transform="translate(-463.81 -455)"/><path class="cls-8" d="M1535.81,1015.62a3.37,3.37,0,0,1-3.28-2.59q-1.54-6.62-2.9-13.25a3.36,3.36,0,1,1,6.59-1.34q1.33,6.54,2.87,13a3.38,3.38,0,0,1-2.51,4A4.11,4.11,0,0,1,1535.81,1015.62Z" transform="translate(-463.81 -455)"/><path class="cls-8" d="M1592.89,672.31a3.37,3.37,0,0,1-2.85-5.16q3.62-5.73,7.4-11.37a3.37,3.37,0,0,1,5.59,3.76q-3.75,5.55-7.29,11.2A3.38,3.38,0,0,1,1592.89,672.31Z" transform="translate(-463.81 -455)"/><path class="cls-8" d="M2406.55,785.09a3.36,3.36,0,0,1-3.23-2.42c-2.57-8.78-5.46-17.58-8.57-26.19a3.37,3.37,0,1,1,6.34-2.28c3.16,8.72,6.08,17.66,8.69,26.57a3.36,3.36,0,0,1-2.28,4.18A3.17,3.17,0,0,1,2406.55,785.09Zm-26.09-68a3.35,3.35,0,0,1-3-1.9c-4-8.26-8.25-16.49-12.71-24.45a3.37,3.37,0,0,1,5.88-3.29c4.52,8.08,8.86,16.43,12.89,24.82a3.36,3.36,0,0,1-1.57,4.49A3.31,3.31,0,0,1,2380.46,717.13Zm-36.76-62.82a3.37,3.37,0,0,1-2.77-1.44c-5.23-7.48-10.78-14.91-16.48-22.07a3.37,3.37,0,0,1,5.27-4.2c5.78,7.28,11.42,14.82,16.73,22.41a3.37,3.37,0,0,1-2.75,5.3Zm-716.46-29.39a3.36,3.36,0,0,1-2.58-5.51c5.9-7.12,12.13-14.17,18.5-21a3.37,3.37,0,0,1,4.91,4.61c-6.28,6.69-12.41,13.64-18.23,20.65A3.38,3.38,0,0,1,1627.24,624.92Zm670.06-26.71a3.38,3.38,0,0,1-2.42-1c-6.34-6.54-13-13-19.76-19.16a3.37,3.37,0,0,1,4.53-5c6.88,6.27,13.63,12.81,20.07,19.45a3.37,3.37,0,0,1-.08,4.76A3.31,3.31,0,0,1,2297.3,598.21Zm-619.23-25.39a3.37,3.37,0,0,1-2.21-5.9c7-6.12,14.28-12.09,21.61-17.76a3.37,3.37,0,0,1,4.12,5.34c-7.23,5.57-14.4,11.46-21.3,17.49A3.35,3.35,0,0,1,1678.07,572.82Zm564.52-22.58a3.4,3.4,0,0,1-2-.66c-7.34-5.46-14.94-10.75-22.6-15.73a3.37,3.37,0,0,1,3.68-5.64c7.77,5.06,15.49,10.43,22.94,16a3.37,3.37,0,0,1-2,6.07Zm-506-20.77a3.37,3.37,0,0,1-1.78-6.23c7.88-4.9,16-9.63,24.19-14a3.37,3.37,0,1,1,3.21,5.92c-8.06,4.35-16.08,9-23.84,13.84A3.39,3.39,0,0,1,1736.57,529.47Zm444.28-17.73a3.31,3.31,0,0,1-1.54-.38c-8.12-4.18-16.48-8.17-24.85-11.85a3.36,3.36,0,1,1,2.71-6.16c8.5,3.73,17,7.78,25.23,12a3.37,3.37,0,0,1-1.55,6.36ZM1801.3,496.13a3.36,3.36,0,0,1-1.29-6.47c8.55-3.56,17.35-6.9,26.14-9.93a3.36,3.36,0,1,1,2.2,6.36c-8.67,3-17.33,6.28-25.76,9.79A3.44,3.44,0,0,1,1801.3,496.13Zm312.38-12.39a3.46,3.46,0,0,1-1-.16c-8.69-2.82-17.58-5.4-26.44-7.68a3.37,3.37,0,1,1,1.67-6.53c9,2.32,18,4.95,26.85,7.81a3.36,3.36,0,0,1-1,6.56Zm-243.12-10a3.37,3.37,0,0,1-.77-6.64c9.06-2.13,18.28-4,27.41-5.57a3.36,3.36,0,0,1,1.14,6.63c-9,1.54-18.08,3.39-27,5.49A3.46,3.46,0,0,1,1870.56,473.74ZM2042.87,467a3,3,0,0,1-.51,0c-9-1.39-18.24-2.51-27.35-3.34a3.36,3.36,0,0,1,.61-6.7c9.25.84,18.59,2,27.76,3.39a3.36,3.36,0,0,1-.51,6.69Zm-100.34-4.13a3.36,3.36,0,0,1-.23-6.72c9.24-.65,18.64-1,27.94-1.1h0a3.37,3.37,0,0,1,0,6.73c-9.16.08-18.42.44-27.53,1.08Z" transform="translate(-463.81 -455)"/><path class="cls-8" d="M2419.35,842.41a3.37,3.37,0,0,1-3.32-2.85q-1-6.6-2.26-13.17a3.37,3.37,0,0,1,6.62-1.24q1.24,6.68,2.29,13.37a3.37,3.37,0,0,1-2.81,3.85A4.73,4.73,0,0,1,2419.35,842.41Z" transform="translate(-463.81 -455)"/><path class="cls-8" d="M2320.19,898.74a5.4,5.4,0,0,0-3.24-5.38l-60.35-26.22a286.5,286.5,0,0,0-28.74-88.31l33.31-56.7a5.4,5.4,0,0,0-.56-6.25l-51.3-60a5.4,5.4,0,0,0-6.09-1.51L2142,678.51a286.46,286.46,0,0,0-82.79-42.07l-16.55-63.68a5.41,5.41,0,0,0-4.81-4l-78.69-6.13a5.41,5.41,0,0,0-5.38,3.23l-26.22,60.35a286.89,286.89,0,0,0-88.3,28.74l-56.7-33.31a5.43,5.43,0,0,0-6.26.56l-60,51.3a5.4,5.4,0,0,0-1.52,6.1L1739,740.74a286.43,286.43,0,0,0-42.06,82.79l-63.69,16.55a5.42,5.42,0,0,0-4,4.82l-6.13,78.68a5.4,5.4,0,0,0,3.24,5.38l60.35,26.22a286.75,286.75,0,0,0,28.73,88.31l-33.3,56.7a5.4,5.4,0,0,0,.55,6.25l51.31,60a5.4,5.4,0,0,0,6.09,1.51l61.17-24.12a286.71,286.71,0,0,0,82.79,42.07l16.56,63.68a5.39,5.39,0,0,0,4.81,4l78.69,6.13a5.41,5.41,0,0,0,5.38-3.23l26.21-60.35A286.33,286.33,0,0,0,2104,1167.4l56.7,33.31a5.42,5.42,0,0,0,6.25-.56l60-51.3a5.42,5.42,0,0,0,1.52-6.09l-24.12-61.18a286.8,286.8,0,0,0,42.06-82.79L2310,982.24a5.42,5.42,0,0,0,4-4.82Z" transform="translate(-463.81 -455)"/><path class="cls-11" d="M1971.46,986.31a75.27,75.27,0,1,1,12.84-1.09A76.41,76.41,0,0,1,1971.46,986.31Zm.3-140.2a66.32,66.32,0,0,0-11.11.95,65.05,65.05,0,1,0,48.54,11h0A64.57,64.57,0,0,0,1971.76,846.11Z" transform="translate(-463.81 -455)"/><path class="cls-11" d="M1970.26,1106.68q-7.73,0-15.5-.6a195.55,195.55,0,0,1-180.33-194.59q0-7.72.61-15.51a195.58,195.58,0,0,1,367-77.59l-8.88,4.8a186.84,186.84,0,0,0-22.36-32.54A185.4,185.4,0,0,0,1785.1,896.77q-.57,7.38-.57,14.7a185.43,185.43,0,0,0,361.19,58.73l9.58,3.21a195.63,195.63,0,0,1-185,133.27Z" transform="translate(-463.81 -455)"/><path class="cls-8" d="M2748,1241.32a3.37,3.37,0,0,1-2.89-5.08c2.26-3.82,4.43-7.72,6.43-11.6a3.37,3.37,0,1,1,6,3.09c-2.06,4-4.28,8-6.62,11.94A3.32,3.32,0,0,1,2748,1241.32Z" transform="translate(-463.81 -455)"/><path class="cls-8" d="M2530.7,1354h-.27a237.55,237.55,0,0,1-27.26-3.75,3.37,3.37,0,0,1,1.3-6.61,231.08,231.08,0,0,0,26.49,3.65,3.37,3.37,0,0,1-.26,6.72Zm44-.71a3.37,3.37,0,0,1-.37-6.72,230.68,230.68,0,0,0,26.36-4.51,3.36,3.36,0,1,1,1.52,6.55,237.23,237.23,0,0,1-27.13,4.66Zm-113.11-15.6a3.49,3.49,0,0,1-1.27-.24,234.36,234.36,0,0,1-24.84-11.85,3.36,3.36,0,1,1,3.24-5.89,229.74,229.74,0,0,0,24.14,11.5,3.36,3.36,0,0,1-1.27,6.48Zm181.62-3a3.37,3.37,0,0,1-1.38-6.44,228,228,0,0,0,23.73-12.33,3.37,3.37,0,0,1,3.45,5.78,235.6,235.6,0,0,1-24.43,12.7A3.38,3.38,0,0,1,2643.24,1334.67Zm-242.45-33.51a3.37,3.37,0,0,1-2.15-.78,236.11,236.11,0,0,1-20.06-18.84,3.36,3.36,0,1,1,4.88-4.63,232,232,0,0,0,19.49,18.3,3.37,3.37,0,0,1-2.16,6Zm302-5.08a3.36,3.36,0,0,1-2.24-5.87l2-1.79a231.71,231.71,0,0,0,16.92-17.13,3.36,3.36,0,0,1,5,4.47,239.42,239.42,0,0,1-17.41,17.64l-2,1.83A3.35,3.35,0,0,1,2702.81,1296.08Zm-348.95-48.16a3.35,3.35,0,0,1-2.84-1.55,233.33,233.33,0,0,1-13.46-24,3.36,3.36,0,1,1,6.05-2.93,230.56,230.56,0,0,0,13.08,23.32,3.36,3.36,0,0,1-2.83,5.18Z" transform="translate(-463.81 -455)"/><path class="cls-8" d="M2325.22,1182.83a3.37,3.37,0,0,1-3.25-2.51c-1.16-4.37-2.21-8.85-3.11-13.29a3.36,3.36,0,1,1,6.59-1.34c.88,4.31,1.9,8.65,3,12.91a3.37,3.37,0,0,1-2.4,4.11A3.13,3.13,0,0,1,2325.22,1182.83Z" transform="translate(-463.81 -455)"/><path class="cls-8" d="M2353,1000.12a3.37,3.37,0,0,1-2.84-5.16c2.41-3.84,5-7.65,7.61-11.34a3.37,3.37,0,0,1,5.48,3.91c-2.56,3.58-5,7.29-7.4,11A3.35,3.35,0,0,1,2353,1000.12Z" transform="translate(-463.81 -455)"/><path class="cls-8" d="M2761.91,1032.86a3.35,3.35,0,0,1-3.1-2,228.32,228.32,0,0,0-11.67-23.57,3.37,3.37,0,0,1,5.85-3.33,233.83,233.83,0,0,1,12,24.27,3.38,3.38,0,0,1-1.79,4.42A3.33,3.33,0,0,1,2761.91,1032.86Zm-36.74-59.39a3.36,3.36,0,0,1-2.56-1.18q-2.58-3-5.28-6c-4.11-4.51-8.44-8.89-12.88-13a3.37,3.37,0,1,1,4.6-4.92c4.57,4.28,9,8.8,13.25,13.43q2.79,3,5.44,6.16a3.36,3.36,0,0,1-2.57,5.55ZM2388.85,956.2a3.37,3.37,0,0,1-2.32-5.8q2-1.95,4.13-3.86c5.27-4.8,10.8-9.42,16.46-13.71a3.37,3.37,0,1,1,4.07,5.36c-5.49,4.17-10.88,8.66-16,13.32-1.35,1.24-2.7,2.5-4,3.76A3.38,3.38,0,0,1,2388.85,956.2Zm283.62-28.55a3.38,3.38,0,0,1-1.8-.52,228,228,0,0,0-23-12.73,3.37,3.37,0,0,1,2.92-6.07,234.51,234.51,0,0,1,23.68,13.11,3.36,3.36,0,0,1-1.8,6.21ZM2446,916a3.37,3.37,0,0,1-1.51-6.38A236.07,236.07,0,0,1,2469.39,899a3.37,3.37,0,0,1,2.28,6.34,228.7,228.7,0,0,0-24.2,10.32A3.32,3.32,0,0,1,2446,916Zm162.51-16.29a3.26,3.26,0,0,1-.87-.12,230.13,230.13,0,0,0-25.76-5.27,3.37,3.37,0,0,1-2.85-3.82,3.31,3.31,0,0,1,3.81-2.84,236.66,236.66,0,0,1,26.53,5.42,3.37,3.37,0,0,1-.86,6.63Zm-96-4.93a3.37,3.37,0,0,1-.52-6.69,237.44,237.44,0,0,1,26.94-2.69,3.37,3.37,0,1,1,.29,6.73,230.92,230.92,0,0,0-26.18,2.61A3.23,3.23,0,0,1,2512.5,894.8Z" transform="translate(-463.81 -455)"/><path class="cls-8" d="M2777.49,1087.5a3.37,3.37,0,0,1-3.32-2.85c-.68-4.35-1.5-8.74-2.42-13a3.37,3.37,0,0,1,6.58-1.42c1,4.43,1.79,9,2.49,13.42a3.37,3.37,0,0,1-2.81,3.85A4.55,4.55,0,0,1,2777.49,1087.5Z" transform="translate(-463.81 -455)"/><path class="cls-8" d="M2726.56,1114.8a2.8,2.8,0,0,0-1.67-2.77l-31-13.46a147,147,0,0,0-14.76-45.37l17.11-29.12a2.78,2.78,0,0,0-.29-3.21l-26.35-30.81a2.77,2.77,0,0,0-3.13-.78l-31.42,12.39a147.28,147.28,0,0,0-42.53-21.61l-8.5-32.71a2.77,2.77,0,0,0-2.48-2.07l-40.42-3.15a2.77,2.77,0,0,0-2.76,1.66l-13.47,31a147.56,147.56,0,0,0-45.36,14.76l-29.13-17.11a2.78,2.78,0,0,0-3.21.29l-30.81,26.35a2.77,2.77,0,0,0-.77,3.13l12.39,31.43a147.1,147.1,0,0,0-21.61,42.52l-32.72,8.51a2.8,2.8,0,0,0-2.07,2.47l-3.15,40.42a2.78,2.78,0,0,0,1.67,2.76l31,13.47a146.94,146.94,0,0,0,14.76,45.36l-17.11,29.13a2.77,2.77,0,0,0,.28,3.21l26.36,30.81a2.79,2.79,0,0,0,3.13.78l31.42-12.39a147.53,147.53,0,0,0,42.53,21.61L2511,1295a2.78,2.78,0,0,0,2.48,2.07l40.42,3.15a2.78,2.78,0,0,0,2.76-1.66l13.47-31a147.32,147.32,0,0,0,45.36-14.77l29.13,17.11a2.77,2.77,0,0,0,3.21-.28l30.81-26.36a2.76,2.76,0,0,0,.77-3.13L2667,1208.72a147.15,147.15,0,0,0,21.61-42.53l32.72-8.5a2.8,2.8,0,0,0,2.07-2.47Z" transform="translate(-463.81 -455)"/><path class="cls-11" d="M2547.42,1162.24a41.18,41.18,0,1,1,7-.6A41.56,41.56,0,0,1,2547.42,1162.24Zm.13-72a30.92,30.92,0,1,0,17.84,5.68h0A30.76,30.76,0,0,0,2547.55,1090.24Z" transform="translate(-463.81 -455)"/><path class="cls-11" d="M2546.81,1224.07c-2.71,0-5.43-.1-8.16-.32a102.88,102.88,0,1,1,86.17-169.44c.29.33.58.67.86,1a102.78,102.78,0,0,1,10.6,15.35l0,.06.14.24c.07.14.15.28.23.42l.13.23.4.74-8.88,4.8a93.82,93.82,0,0,0-11.19-16.29h0a92.78,92.78,0,1,0,17.45,89.86l9.59,3.21a103,103,0,0,1-97.38,70.13Z" transform="translate(-463.81 -455)"/><path class="cls-12" d="M1891.24,1585.26a39.94,39.94,0,0,1,30.85-10.62c121.17,10.9,347.25-47.47,495-198.65,10.26-10.5,29-4.56,40.72,4.22,164.33,122.82,436.72,148.25,531.27,153.45a39.92,39.92,0,0,1,37.46,35.74c86,830.54-454.77,1131.5-566.93,1184.63a40,40,0,0,1-38.21-2.21c-559-348.18-535.06-801-542.79-1136.47A40,40,0,0,1,1891.24,1585.26Z" transform="translate(-463.81 -455)"/><path class="cls-13" d="M2444.5,2693.7a13.3,13.3,0,0,1-7.17-2.09c-214.3-137-354-300.76-427-500.67-65.22-178.55-68.42-360.36-71.23-520.77l-.39-21.38a13.25,13.25,0,0,1,13.29-13.46h0c132.71,0,331.91-58.6,478-189.51a13.24,13.24,0,0,1,16.16-1.17c160.52,106.51,389.51,137.53,511.71,146.54a13.18,13.18,0,0,1,12.21,12c28.41,324.07-39,598.1-200.34,814.49-120.5,161.61-263.39,245.82-319.23,274.52h0A13.2,13.2,0,0,1,2444.5,2693.7Zm3.54-6.29,1.24,2.42-1.24-2.42c55.51-28.53,197.54-112.23,317.36-272.93,160.52-215.29,227.56-488.07,199.28-810.76a7.77,7.77,0,0,0-7.18-7.11c-122.74-9-352.77-40.23-514.33-147.43a7.81,7.81,0,0,0-9.52.69c-147.17,131.87-347.89,190.9-481.53,190.9h0a7.87,7.87,0,0,0-5.74,2.35,7.66,7.66,0,0,0-2.22,5.57l.39,21.38c2.8,160,6,341.31,70.9,519,72.6,198.75,211.55,361.63,424.81,498A7.86,7.86,0,0,0,2448,2687.41Z" transform="translate(-463.81 -455)"/><path class="cls-13" d="M2639.89,1898.78h-25.28a22.73,22.73,0,0,1-22.73-22.73v-86.39a56,56,0,0,0-56-56H2379.26a56,56,0,0,0-56,56v86.39a22.72,22.72,0,0,1-22.72,22.73h-25.28a22.73,22.73,0,0,1-22.73-22.73v-86.39a126.73,126.73,0,0,1,126.73-126.73h156.63a126.72,126.72,0,0,1,126.72,126.73v86.39A22.72,22.72,0,0,1,2639.89,1898.78Z" transform="translate(-463.81 -455)"/><path class="cls-13" d="M2671.22,1919.17H2243.93a47.41,47.41,0,0,0-47.41,47.41v327.93a47.41,47.41,0,0,0,47.41,47.41h427.29a47.41,47.41,0,0,0,47.41-47.41V1966.58A47.41,47.41,0,0,0,2671.22,1919.17Zm-152.51,316.95a17.56,17.56,0,0,1-17.08,21.66h-88.11a17.56,17.56,0,0,1-17.08-21.67l20.56-85.58a79.17,79.17,0,0,1-38.52-72.32c2.1-39.74,34.31-72.28,74-74.74a79.2,79.2,0,0,1,45.63,147.06Z" transform="translate(-463.81 -455)"/><path class="cls-14" d="M819.7,1812s34.6,1.83,38.85,73c0,0-80.25,71.94-188.65,89.06-8.14,1.29,11.38-55.55,14.31-63.25C698.17,1874.18,742.13,1850.59,819.7,1812Z" transform="translate(-463.81 -455)"/><path class="cls-5" d="M1209.44,1728.26h-73s-224.14-247.55-371.15-272.53c0,0-102.34,130.63,5.45,374.71,8.67,19.63,32.92,28.35,51,16.8a29.24,29.24,0,0,0,11.65-13.89L824.7,1625s191.2,167.22,224.44,199.49S1251.3,1837,1209.44,1728.26Z" transform="translate(-463.81 -455)"/><path class="cls-15" d="M503.4,2248c30.61-26.82,79.37-56.91,149.76-65.54L677,2197s-15.18,22.4-42.92,46.05c-25.48,14.8-64.84,34.85-97.47,39.2C504.86,2286.49,500.18,2267.32,503.4,2248Z" transform="translate(-463.81 -455)"/><path class="cls-8" d="M684.21,1910.81c18.85,6.1,27.15,32.81,75,15.15a423.46,423.46,0,0,0,98.39-51.84c.39,3.45.73,7.05,1,10.88,0,0-84.62,80.48-193,97.61a10.79,10.79,0,0,1-11.65-14.54A271.72,271.72,0,0,1,684.21,1910.81Z" transform="translate(-463.81 -455)"/><path class="cls-8" d="M480.35,2270.9a252.1,252.1,0,0,1,23-22.9c-3.22,19.32,1.46,38.49,33.18,34.27,32.63-4.35,72-24.4,97.47-39.2-31.94,27.24-80.55,56.16-141.89,54.46C478.53,2297.15,471.34,2281.13,480.35,2270.9Z" transform="translate(-463.81 -455)"/><path class="cls-5" d="M1206.77,1781.1l-342,3.7s-195.3,161.58-230.73,408c0,0-5.88,18.13,29.43,21.23,0,0,118.07-77.12,195.07-213.47C953,1833.35,1140,1908.6,1140,1908.6c89.85,19.83,161.36,12.45,213.7-68.08Z" transform="translate(-463.81 -455)"/><path class="cls-16" d="M1198.7,1505.6s-36.82,184.51-217.21,257.5l-64.16-7.56-15.14,24.14,150.51,4.8s128.65-51,196.82-189.81C1251.77,1590.08,1289.31,1512.57,1198.7,1505.6Z" transform="translate(-463.81 -455)"/><path class="cls-17" d="M1179,1778.08s41.86-113.8,50.86-224.38c0,0-30.63-26.32-49.77-37.68a13.85,13.85,0,0,1-5.41-18c14.08-29.16,99.19-143.64,105.57-145.23,34.65-8.65,176.78-76.23,276.88,60.69,43,58.76-8.52,239.65-203.42,427C1291,1850.73,1232.33,1832.66,1179,1778.08Z" transform="translate(-463.81 -455)"/><path class="cls-18" d="M1340.29,1578.63s-116.32,137.73-265,157.86c0,0-38.43-35-67-22.53s-67.77,67.73-67.77,67.73h191s180.54-6.36,270.76-115.84C1394.93,1627.54,1373.19,1604.65,1340.29,1578.63Z" transform="translate(-463.81 -455)"/><path class="cls-19" d="M1408.14,1256.24l25.45,84.88a9.31,9.31,0,0,1-3.62,10.39c-12.25,8.4-44.28,25.09-88.21,8.87a13.85,13.85,0,0,1-8.9-11.89l-6-74Z" transform="translate(-463.81 -455)"/><path class="cls-20" d="M1259.12,1187.49s12.51,88,46.31,115,99.66,6.69,121.9-59.65L1383,1129.47Z" transform="translate(-463.81 -455)"/><path class="cls-21" d="M1388,1202.87a4.35,4.35,0,0,1-5.66-3.49c-1.22-8.12-4.27-24.2-10.43-35.15,0,0,3.22-11.54-29.18,5.9s-81.06,43-109.72,27.8c-27.93-14.87-56.23-89.72,17.6-75.86a4.35,4.35,0,0,0,5.18-4.56c-.9-12.3.32-40.6,29-49.69,26.82-8.5,41.5,3.61,47.55,10.92a4.33,4.33,0,0,0,6.78-.11c8-10.49,29.85-32.82,62-18.66,26.45,11.66,30.57,28,30.13,38.11a4.34,4.34,0,0,0,6.19,4.14c8.1-3.73,21.13-5.67,33.62,10,17.26,21.63-7.41,40.38-14.81,45.3a4.37,4.37,0,0,0-2,3.6c-.07,11.24-1.82,60.3-26.41,88a4.39,4.39,0,0,1-7.3-1.26l-18.93-45.11a4.38,4.38,0,0,0-5.38-2.47Z" transform="translate(-463.81 -455)"/><path class="cls-22" d="M1387.6,1212s11.56-47.09,29.12-31.8-4.57,48.93-24.69,55.35Z" transform="translate(-463.81 -455)"/><path class="cls-23" d="M950.09,1792.38l-85.73-285.92a29.24,29.24,0,0,0-26-20.77l-115.75-7.92A16.42,16.42,0,0,0,706,1499.59l95.84,273.05a24.06,24.06,0,0,0,20.26,15.95l114,12.65Z" transform="translate(-463.81 -455)"/><path class="cls-8" d="M792,1603.37c6.4,12.92,17.45,20.49,24.69,16.9s7.91-17,1.51-29.88-17.46-20.49-24.69-16.91S785.58,1590.45,792,1603.37Z" transform="translate(-463.81 -455)"/><path class="cls-24" d="M936.08,1801.24h.56L1179.52,1789a10.88,10.88,0,1,0-1.1-21.74l-242.88,12.28a10.88,10.88,0,0,0,.54,21.75Z" transform="translate(-463.81 -455)"/><path class="cls-25" d="M1229.83,1555.38a1.68,1.68,0,0,1-1.68-1.68c-.17-51.27,19.56-119.12,19.76-119.8a1.68,1.68,0,0,1,3.23.94c-.2.68-19.8,68.08-19.63,118.85a1.68,1.68,0,0,1-1.68,1.69Z" transform="translate(-463.81 -455)"/><path class="cls-26" d="M1340.29,1580.32a1.71,1.71,0,0,1-1-.36,1.69,1.69,0,0,1-.27-2.37c.53-.67,53.32-67.78,71.39-113.57a1.66,1.66,0,0,1,2.18-1,1.69,1.69,0,0,1,1,2.19c-18.25,46.24-71.35,113.74-71.88,114.42A1.69,1.69,0,0,1,1340.29,1580.32Z" transform="translate(-463.81 -455)"/><path class="cls-27" d="M1415.12,1683.51l-9.6-13.58a1.69,1.69,0,0,1,2.75-2l8,11.36c74.91-32.84,121.28-122.46,121.75-123.37a1.68,1.68,0,0,1,3,1.53c-.47.93-47.89,92.6-124.67,125.47Z" transform="translate(-463.81 -455)"/></svg>