<?xml version="1.0" encoding="iso-8859-1"?>
<!-- Generator: Adobe Illustrator 19.0.0, SVG Export Plug-In . SVG Version: 6.00 Build 0)  -->
<svg version="1.1" id="Capa_1" xmlns="http://www.w3.org/2000/svg" xmlns:xlink="http://www.w3.org/1999/xlink" x="0px" y="0px"
	 viewBox="0 0 511.999 511.999" style="enable-background:new 0 0 511.999 511.999;" xml:space="preserve">
<g>
	<g>
		<path d="M462.534,115.825c-0.073-31.029-12.299-60.168-34.427-82.048C406.072,11.988,376.845,0,345.779,0
			c-0.093,0-0.188,0-0.282,0l-184.85,0.432C96.263,0.583,44.003,52.786,44.153,116.802c0.119,50.797,33.53,95.206,81.192,110.33
			l-2.944,33.869c-0.496,5.704,2.258,11.204,7.122,14.225c2.454,1.524,5.235,2.287,8.017,2.287c2.732,0,5.465-0.736,7.89-2.209
			l70.454-42.805l75.462-0.177l70.653,42.475c4.906,2.95,11.056,2.892,15.907-0.152s7.578-8.556,7.055-14.258l-3.102-33.854
			C429.449,211.186,462.652,166.622,462.534,115.825z M288.99,160.274l-109.557,0.256c-0.012,0-0.025,0-0.036,0
			c-8.377,0-15.176-6.78-15.195-15.16c-0.019-8.392,6.768-15.212,15.16-15.232l109.556-0.256c0.012,0,0.025,0,0.037,0
			c8.376,0,15.175,6.78,15.195,15.16C304.169,153.434,297.382,160.254,288.99,160.274z M327.335,106.55l-148.027,0.346
			c-0.012,0-0.025,0-0.037,0c-8.376,0.001-15.175-6.779-15.195-15.16c-0.02-8.392,6.768-15.212,15.16-15.232l148.027-0.346
			c0.012,0,0.025,0,0.037,0c8.376,0,15.175,6.78,15.195,15.16C342.515,99.71,335.727,106.53,327.335,106.55z"/>
	</g>
</g>
<g>
	<g>
		<path d="M158.536,431.477l-47.217,58.354c-2.875,3.554-7.198,5.624-11.769,5.637c-0.014,0-0.03,0-0.044,0
			c-4.555,0-8.871-2.043-11.758-5.569l-47.657-58.203c-14.031,6.207-27.1,14.298-29.456,23.509v42.205
			c0,8.057,6.532,14.589,14.589,14.589h148.675c8.057,0,14.589-6.532,14.589-14.589v-42.205
			C186.104,445.886,172.754,437.712,158.536,431.477z"/>
	</g>
</g>
<g>
	<g>
		<path d="M110.467,306.805h-21.81c-15.773,0-28.559,12.786-28.559,28.559v44.65c0,12.106,7.537,22.446,18.171,26.602v12.108
			c0,0-3.019,0.741-7.781,2.123l28.948,35.354l28.719-35.493c-4.481-1.291-7.3-1.984-7.3-1.984v-12.108
			c10.634-4.156,18.171-14.496,18.171-26.602v-44.65C139.026,319.591,126.24,306.805,110.467,306.805z"/>
	</g>
</g>
<g>
	<g>
		<path d="M471.412,431.477l-47.217,58.354c-2.875,3.554-7.198,5.624-11.769,5.637c-0.014,0-0.03,0-0.044,0
			c-4.555,0-8.871-2.043-11.758-5.569l-47.657-58.203c-14.03,6.207-27.1,14.298-29.456,23.509v42.205
			c0,8.057,6.532,14.589,14.589,14.589h148.675c8.057,0,14.589-6.532,14.589-14.589v-42.205
			C498.98,445.886,485.63,437.712,471.412,431.477z"/>
	</g>
</g>
<g>
	<g>
		<path d="M423.343,306.805h-21.809c-15.773,0-28.559,12.786-28.559,28.559v44.65c0,12.106,7.537,22.446,18.171,26.602v12.108
			c0,0-3.019,0.741-7.781,2.123l28.948,35.354l28.718-35.493c-4.481-1.291-7.3-1.984-7.3-1.984v-12.108
			c10.634-4.156,18.171-14.496,18.171-26.602v-44.65C451.902,319.591,439.116,306.805,423.343,306.805z"/>
	</g>
</g>
<g>
</g>
<g>
</g>
<g>
</g>
<g>
</g>
<g>
</g>
<g>
</g>
<g>
</g>
<g>
</g>
<g>
</g>
<g>
</g>
<g>
</g>
<g>
</g>
<g>
</g>
<g>
</g>
<g>
</g>
</svg>
