<svg xmlns="http://www.w3.org/2000/svg" viewBox="0 0 95.72 96.25"><defs><style>.cls-1{isolation:isolate;}.cls-2{fill:#f9c2a7;}.cls-3{fill:#ededed;}.cls-10,.cls-3{mix-blend-mode:multiply;}.cls-4{fill:#e1b099;}.cls-5{fill:#fff;}.cls-6{fill:#432918;}.cls-7{fill:#3c3c3b;}.cls-8{fill:#bc1621;}.cls-9{fill:#be1622;}.cls-10{fill:#dadada;}.cls-11{fill:#313130;}.cls-12{fill:#e9e9e9;}</style></defs><g class="cls-1"><g id="Calque_2" data-name="Calque 2"><g id="Capa_1" data-name="Capa 1"><rect class="cls-2" x="37.84" y="58.75" width="20.04" height="13.5"/><path class="cls-3" d="M42.7,68.52a27.16,27.16,0,0,0,9.58,2,31,31,0,0,0,5.6-.55V58.75h-20v7A16.67,16.67,0,0,0,42.7,68.52Z"/><path class="cls-2" d="M69.55,33.34c.07-.49.91-1.3,1.28-1.58.83-.61,1.65,0,1.89.81A10,10,0,0,1,73,34.81a9.79,9.79,0,0,1-1,5.17,7,7,0,0,1-2.39,2.64.85.85,0,0,1-1.29-.7Z"/><path class="cls-4" d="M69.38,34.42c.05-.36.65-.94.92-1.13.58-.44,1.18,0,1.35.58a7.23,7.23,0,0,1,.2,1.6,7,7,0,0,1-.68,3.7,5,5,0,0,1-1.7,1.89.62.62,0,0,1-.93-.5Z"/><path class="cls-2" d="M25.65,33.34c-.06-.49-.91-1.3-1.28-1.58-.82-.61-1.65,0-1.89.81a11.27,11.27,0,0,0-.29,2.24,9.89,9.89,0,0,0,1,5.17,7,7,0,0,0,2.38,2.64.86.86,0,0,0,1.3-.7S25.66,33.35,25.65,33.34Z"/><path class="cls-4" d="M25.83,34.42c0-.36-.66-.94-.92-1.13-.59-.44-1.18,0-1.35.58a7.24,7.24,0,0,0-.21,1.6,7.14,7.14,0,0,0,.68,3.7,5,5,0,0,0,1.71,1.89.61.61,0,0,0,.92-.5Z"/><path class="cls-2" d="M70.21,35a34,34,0,0,1-3.65,16.27A32.48,32.48,0,0,1,57,61.68c-3,2.22-6.32,4.81-10.18,4.49-4-.33-7.15-3.75-10.09-6.43a35,35,0,0,1-9.4-13.93A32.34,32.34,0,0,1,25.51,35c0-18.29,10-29.8,22.35-29.8S70.21,16.67,70.21,35Z"/><path class="cls-2" d="M82.85,78.36l-25-6.53h-20l-25,6.53A21.44,21.44,0,0,0,0,96.22H95.72A21.44,21.44,0,0,0,82.85,78.36Z"/><path class="cls-5" d="M82.85,78.36l-25-6.53h-20l-25,6.53A21.44,21.44,0,0,0,0,96.22H95.72A21.44,21.44,0,0,0,82.85,78.36Z"/><path class="cls-6" d="M31.52,13.91S39,25.06,57.88,26.34c0,0-1.58-.71-3.44-5.57a63.4,63.4,0,0,0,13.94,8.72l1.79,3.62s0-1.85,1.71-1.52c0,0,1.43-14.54-4.58-21.68A9,9,0,0,1,72,11.62S69.31,5.91,60,2.76c0,0,2.28-1.85,6.43-.57,0,0-5.49-2.57-14.68-2.14C51.77.05,33.75-.67,31.52,13.91Z"/><path class="cls-6" d="M34.44,16.56,25.54,33a16.53,16.53,0,0,0-1.17-1.28S23.92,9.12,36.45,4.84Z"/><path class="cls-7" d="M82.85,78.36,64.37,73.53,47.86,96.22,31.52,73.48,12.86,78.36A21.44,21.44,0,0,0,0,96.22H95.72A21.44,21.44,0,0,0,82.85,78.36Z"/><polygon class="cls-8" points="45.67 84.85 41.06 96.22 54.14 96.22 49.66 84.85 45.67 84.85"/><polygon class="cls-9" points="47.56 72.05 41.7 79.91 45.77 84.88 47.76 84.85 49.76 84.82 53.67 79.71 47.56 72.05"/><path class="cls-10" d="M51.47,78.88c-.75,1.48-2.14,3.17-4,2.75A3.27,3.27,0,0,1,45,77.47c.44-1.83,1.63-3.36,2.28-5.09L41.7,79.91l4.07,5,4-.06,3.91-5.11L52,77.64C51.85,78.06,51.67,78.48,51.47,78.88Z"/><polygon class="cls-11" points="47.86 96.22 31.52 73.48 18.46 76.89 35.15 88.64 30.87 90.54 38.58 96.22 47.86 96.22"/><polygon class="cls-11" points="47.86 96.25 64.19 73.51 77.25 76.92 60.56 88.68 64.85 90.57 57.13 96.25 47.86 96.25"/><polygon class="cls-12" points="28.01 72.31 37.8 67.71 47.79 71.88 57.78 67.71 68.24 72.31 53.44 82.21 47.79 74.11 41.7 82.21 28.01 72.31"/></g></g></g></svg>